REM DIRINDEX 1\2,1\3,1\4,1\5
REM DIRNAME "folder01","folder02","folder03","folder04","folder05"
TITLE ""
FILE "P1Q_t_0249-0258.mp3" MP3
  TRACK 01 AUDIO
    TITLE "3:cjc173_1663"
    INDEX 01 00:00:00
  TRACK 02 AUDIO
    TITLE "0:"
    INDEX 01 00:01:27
  TRACK 03 AUDIO
    TITLE "4:cjc173_1664"
    INDEX 01 00:01:49
  TRACK 04 AUDIO
    TITLE "0:"
    INDEX 01 00:04:02
  TRACK 05 AUDIO
    TITLE "5:cjc173_1665"
    INDEX 01 00:04:22
  TRACK 06 AUDIO
    TITLE "0:"
    INDEX 01 00:09:37
  TRACK 07 AUDIO
    TITLE "3:cjc173_1666"
    INDEX 01 00:10:07
  TRACK 08 AUDIO
    TITLE "0:"
    INDEX 01 00:11:08
  TRACK 09 AUDIO
    TITLE "4:cjc173_1667"
    INDEX 01 00:11:28
  TRACK 10 AUDIO
    TITLE "0:"
    INDEX 01 00:13:34
  TRACK 11 AUDIO
    TITLE "5:cjc173_1668"
    INDEX 01 00:13:54
  TRACK 12 AUDIO
    TITLE "0:"
    INDEX 01 00:19:00
  TRACK 13 AUDIO
    TITLE "3:cjc173_1669"
    INDEX 01 00:19:47
  TRACK 14 AUDIO
    TITLE "0:"
    INDEX 01 00:21:09
  TRACK 15 AUDIO
    TITLE "4:cjc173_1670"
    INDEX 01 00:21:30
  TRACK 16 AUDIO
    TITLE "0:"
    INDEX 01 00:22:59
  TRACK 17 AUDIO
    TITLE "5:cjc173_1671"
    INDEX 01 00:23:03
  TRACK 18 AUDIO
    TITLE "0:"
    INDEX 01 00:27:35
  TRACK 19 AUDIO
    TITLE "3:cjc173_1672"
    INDEX 01 00:28:05
  TRACK 20 AUDIO
    TITLE "0:"
    INDEX 01 00:29:37
  TRACK 21 AUDIO
    TITLE "4:cjc173_1673"
    INDEX 01 00:29:61
  TRACK 22 AUDIO
    TITLE "0:"
    INDEX 01 00:32:36
  TRACK 23 AUDIO
    TITLE "5:cjc173_1674"
    INDEX 01 00:32:55
  TRACK 24 AUDIO
    TITLE "0:"
    INDEX 01 00:37:51
  TRACK 25 AUDIO
    TITLE "3:cjc173_1675"
    INDEX 01 00:38:23
  TRACK 26 AUDIO
    TITLE "0:"
    INDEX 01 00:39:51
  TRACK 27 AUDIO
    TITLE "4:cjc173_1676"
    INDEX 01 00:40:00
  TRACK 28 AUDIO
    TITLE "0:"
    INDEX 01 00:41:37
  TRACK 29 AUDIO
    TITLE "5:cjc173_1677"
    INDEX 01 00:41:58
  TRACK 30 AUDIO
    TITLE "0:"
    INDEX 01 00:46:73
  TRACK 31 AUDIO
    TITLE "3:cjc173_1678"
    INDEX 01 00:47:45
  TRACK 32 AUDIO
    TITLE "0:"
    INDEX 01 00:48:64
  TRACK 33 AUDIO
    TITLE "4:cjc173_1679"
    INDEX 01 00:49:11
  TRACK 34 AUDIO
    TITLE "0:"
    INDEX 01 00:52:70
  TRACK 35 AUDIO
    TITLE "5:cjc173_1680"
    INDEX 01 00:53:16
  TRACK 36 AUDIO
    TITLE "0:"
    INDEX 01 00:57:73
  TRACK 37 AUDIO
    TITLE "3:cjc173_1681"
    INDEX 01 00:58:43
  TRACK 38 AUDIO
    TITLE "0:"
    INDEX 01 01:00:09
  TRACK 39 AUDIO
    TITLE "4:cjc173_1682"
    INDEX 01 01:00:30
  TRACK 40 AUDIO
    TITLE "0:"
    INDEX 01 01:02:41
  TRACK 41 AUDIO
    TITLE "5:cjc173_1683"
    INDEX 01 01:02:60
  TRACK 42 AUDIO
    TITLE "0:"
    INDEX 01 01:09:29
  TRACK 43 AUDIO
    TITLE "3:cjc173_1684"
    INDEX 01 01:09:74
  TRACK 44 AUDIO
    TITLE "0:"
    INDEX 01 01:11:14
  TRACK 45 AUDIO
    TITLE "4:cjc173_1685"
    INDEX 01 01:11:38
  TRACK 46 AUDIO
    TITLE "0:"
    INDEX 01 01:13:45
  TRACK 47 AUDIO
    TITLE "5:cjc173_1686"
    INDEX 01 01:13:64
  TRACK 48 AUDIO
    TITLE "0:"
    INDEX 01 01:18:20
  TRACK 49 AUDIO
    TITLE "3:cjc173_1687"
    INDEX 01 01:18:65
  TRACK 50 AUDIO
    TITLE "0:"
    INDEX 01 01:19:59
  TRACK 51 AUDIO
    TITLE "4:cjc173_1688"
    INDEX 01 01:20:07
  TRACK 52 AUDIO
    TITLE "0:"
    INDEX 01 01:23:25
  TRACK 53 AUDIO
    TITLE "5:cjc173_1689"
    INDEX 01 01:23:47
  TRACK 54 AUDIO
    TITLE "0:"
    INDEX 01 01:27:51
  TRACK 55 AUDIO
    TITLE "3:cjc173_1690"
    INDEX 01 01:28:21
  TRACK 56 AUDIO
    TITLE "0:"
    INDEX 01 01:29:49
  TRACK 57 AUDIO
    TITLE "4:cjc173_1691"
    INDEX 01 01:29:71
  TRACK 58 AUDIO
    TITLE "0:"
    INDEX 01 01:32:61
  TRACK 59 AUDIO
    TITLE "5:cjc173_1692"
    INDEX 01 01:33:06
  TRACK 60 AUDIO
    TITLE "0:"
    INDEX 01 01:37:25
